<svg width="0" height="0" class="hidden">
    <symbol xmlns="http://www.w3.org/2000/svg" id="fb">
        <path fill-rule="evenodd"  d="M4.391 15.991v12.707h5.122V15.991h4.253l.653-4.955H9.513V7.872c0-.804.168-1.407.503-1.808.334-.402.982-.603 1.942-.603h2.628v-4.42C13.682.907 12.41.84 10.769.84c-1.931 0-3.477.573-4.637 1.716C4.971 3.7 4.391 5.31 4.391 7.386v3.65H.122v4.955h4.269z"></path>
    </symbol>
    <symbol xmlns="http://www.w3.org/2000/svg" viewBox="0 0 25.72 25.72" id="inst">
        <path d="M.97 24.76a3.22 3.22 0 0 0 2.33.97h19.12a3.329 3.329 0 0 0 3.3-3.3V3.31a3.329 3.329 0 0 0-3.3-3.3H3.3A3.22 3.22 0 0 0 .97.98 3.18 3.18 0 0 0 0 3.31v19.12a3.18 3.18 0 0 0 .97 2.33zM2.86 10.9h2.36a7.261 7.261 0 0 0-.33 2.19 7.351 7.351 0 0 0 2.34 5.48 7.861 7.861 0 0 0 5.65 2.27 8.019 8.019 0 0 0 4.01-1.04 7.828 7.828 0 0 0 2.92-2.82 7.468 7.468 0 0 0 1.07-3.89 6.967 6.967 0 0 0-.34-2.19h2.26v10.84a1.007 1.007 0 0 1-1.02 1.02H3.89a.95.95 0 0 1-.73-.29.973.973 0 0 1-.3-.73V10.9zm10.02-3.09a5.058 5.058 0 0 1 3.65 1.47 4.882 4.882 0 0 1 0 7.08 5.266 5.266 0 0 1-7.3 0 4.9 4.9 0 0 1 0-7.08 5.058 5.058 0 0 1 3.65-1.47zm4.7-3.78a1.134 1.134 0 0 1 .33-.81 1.11 1.11 0 0 1 .82-.34h2.92a1.11 1.11 0 0 1 .82.34 1.134 1.134 0 0 1 .33.81v2.76a1.144 1.144 0 0 1-1.15 1.16h-2.92a1.144 1.144 0 0 1-1.15-1.16V4.03z"
               fill-rule="evenodd"></path>
    </symbol>
    <symbol xmlns="http://www.w3.org/2000/svg" id="tw">
        <path fill-rule="evenodd"  d="M8.571 21.555c1.92 0 3.722-.304 5.408-.913 1.685-.608 3.125-1.423 4.319-2.444a16.36 16.36 0 0 0 3.089-3.524 15.68 15.68 0 0 0 1.933-4.16 15.362 15.362 0 0 0 .62-5.047 11.335 11.335 0 0 0 2.712-2.796 10.801 10.801 0 0 1-3.114.837c1.172-.703 1.964-1.696 2.377-2.98a10.614 10.614 0 0 1-3.432 1.306C21.412.695 20.095.126 18.532.126c-1.495 0-2.77.528-3.825 1.582-1.055 1.055-1.582 2.33-1.582 3.826 0 .401.045.814.134 1.238A15.051 15.051 0 0 1 7.04 5.107a15.332 15.332 0 0 1-4.931-3.993 5.299 5.299 0 0 0-.736 2.729c0 .926.217 1.785.653 2.578a5.398 5.398 0 0 0 1.758 1.925 5.361 5.361 0 0 1-2.445-.686v.067c0 1.305.41 2.452 1.231 3.44a5.312 5.312 0 0 0 3.105 1.866 5.586 5.586 0 0 1-1.423.185c-.312 0-.653-.028-1.021-.084a5.282 5.282 0 0 0 1.909 2.67 5.265 5.265 0 0 0 3.147 1.08c-1.965 1.54-4.202 2.31-6.713 2.31-.48 0-.916-.022-1.306-.067 2.511 1.619 5.279 2.428 8.303 2.428z"></path>
    </symbol>
</svg>